<svg xmlns="http://www.w3.org/2000/svg" xmlns:xlink="http://www.w3.org/1999/xlink" width="1920" height="980"><defs><linearGradient id="a" x1=".566" y1="1.987" x2=".552" gradientUnits="objectBoundingBox"><stop offset="0" stop-color="#d72344"/><stop offset=".729" stop-color="#d72344"/><stop offset="1" stop-color="#8b2346"/></linearGradient><linearGradient id="b" x1="2.064" y1=".516" x2="0" y2=".5" xlink:href="#a"/><linearGradient id="d" x1=".45" y1="-.285" x2=".5" y2="1" xlink:href="#a"/><clipPath id="c"><path data-name="Rectangle 575" transform="translate(.385)" fill="url(#a)" d="M0 0h1246v980H0z"/></clipPath></defs><g data-name="Group 1909"><path data-name="Rectangle 573" fill="url(#b)" d="M0 0h1920v980H0z"/><g data-name="Mask Group 86" transform="translate(49.615)" clip-path="url(#c)"><g data-name="Group 1908"><g data-name="Group 1907"><path data-name="Path 2792" d="M209.475 154.902A198.018 198.018 0 01244.552 18.33C385.581-180.847 617.829-311 880.235-311c231.767 0 440.02 101.544 582.652 262.505-66.805-27.182-150.7-47.15-268.761-47.15-252.2 0-331.266 135.215-331.266 249.814 0 114.614 61.35 196.237 209.672 268.167s287.461 113.758 384.621 199.794c53.482 47.343 86.954 98.164 93.858 157.4a198.01 198.01 0 01-35.092 136.573c-141.028 199.177-373.277 329.33-635.682 329.33-231.767 0-440.021-101.544-582.636-262.514 66.789 27.19 150.688 47.157 268.761 47.157 252.182 0 331.251-135.222 331.251-249.812 0-114.614-61.334-196.237-209.656-268.177-148.335-71.924-287.459-113.75-384.638-199.785-53.463-47.343-86.952-98.181-93.84-157.405z" fill="#d72344" fill-rule="evenodd"/><path data-name="Path 2793" d="M1233.359 4424.3c24.184 37.6 59.278 76.592 110.22 110.572 163.529 109.112 299.476 136.218 404.522 193.69s152.029 84.485 152.029 181.847-114.894 129.636-234.184 129.636c-77.556 0-197.9-18.918-303.216-85.171a275.038 275.038 0 01-118.414-159.665 783.445 783.445 0 01-10.956-370.909z" transform="translate(-1114.219 -4120.145)" fill-rule="evenodd" fill="url(#d)"/><path data-name="Rectangle 574" fill="#d72344" d="M841.385-69h602v616h-602z"/></g></g></g></g></svg>