<?xml version="1.0" encoding="UTF-8"?>
<svg width="75px" height="76px" viewBox="0 0 75 76" version="1.1" xmlns="http://www.w3.org/2000/svg" xmlns:xlink="http://www.w3.org/1999/xlink">
    <!-- Generator: Sketch 59.1 (86144) - https://sketch.com -->
    <title>Earn</title>
    <desc>Created with Sketch.</desc>
    <g id="Final-P0" stroke="none" stroke-width="1" fill="none" fill-rule="evenodd">
        <g id="AC_LandingPg_P0_Desktop" transform="translate(-924.000000, -620.000000)">
            <g id="Group-2">
                <g id="Icons" transform="translate(71.000000, 620.000000)">
                    <g id="Earn" transform="translate(853.000000, 0.000000)">
                        <path d="M74.5588235,49.4867302 L74.5588235,63.2209329 C74.5588235,66.7684398 65.3708066,66.9485294 63.5294118,66.9485294 C62.5228164,66.9485294 59.3221328,66.8933285 56.625797,66.2650075 C57.6756376,65.607228 58.6195463,64.8750754 59.4567153,64.068442 C60.6121646,64.2090562 61.9725306,64.3014706 63.5294118,64.3014706 C68.2548254,64.3014706 71.2112247,63.4596162 71.9117647,62.954676 L71.9117647,61.2918091 C69.0478875,62.3267858 64.729345,62.4040671 63.5294118,62.4040671 C63.0701402,62.4040671 62.1522971,62.3922191 61.0356769,62.3202156 C61.6457411,61.5191292 62.1744851,60.6617648 62.6179774,59.7458605 C62.914339,59.7528615 63.2174323,59.7570083 63.5294118,59.7570083 C68.2654886,59.7570083 71.2203261,58.9116535 71.9117647,58.4073594 L71.9117647,56.7714736 C69.0478875,57.8064503 64.729345,57.8837316 63.5294118,57.8837316 C63.4827199,57.8837316 63.4231567,57.8833008 63.3673096,57.8830315 C63.6524695,57.0400462 63.8780123,56.1565084 64.041784,55.2309641 C68.4755752,55.1723704 71.2458532,54.3726842 71.9117647,53.8870239 L71.9117647,52.2508688 C69.4857788,53.1277824 66.0228774,53.3168119 64.2891379,53.3542408 C64.3467084,52.6811666 64.3735818,50.8943266 64.3694889,50.7007733 C67.8681497,50.6235459 70.2965052,50.0883394 71.3964844,49.6349379 C70.2829877,49.1771203 67.8107946,48.6349128 64.2470775,48.5677023 C64.1636029,47.6874497 64.0400067,46.8003575 63.8809743,45.9095494 C66.0973583,45.9335147 73.152412,46.2180283 74.3731331,48.8212496 C74.4882202,49.0174417 74.5588235,49.2429307 74.5588235,49.4867302 Z" id="Path" fill="#000000" fill-rule="nonzero"></path>
                        <path d="M10.0923426,59.0073529 C6.15191294,59.0073529 3.67374194,58.3464499 2.97837203,57.9156135 L2.97837203,56.8943696 C5.36030488,57.6896936 8.69233976,57.7855009 10.0923426,57.7855009 C10.7475371,57.7855009 11.8315753,57.7612663 13.0375941,57.6574347 C12.8141516,56.8285055 12.6481181,55.9526151 12.5209136,55.0451121 C11.7849373,55.1020364 10.9806196,55.138442 10.0923426,55.138442 C7.06356274,55.138442 4.89860982,54.7481043 3.74353747,54.3724149 C4.89860982,53.9958639 7.06356274,53.6055261 10.0923426,53.6055261 C10.9085083,53.6055261 11.6563326,53.6355231 12.3441091,53.6843153 C12.2791605,52.9092945 12.2502945,51.1106064 12.2509946,51.0258393 C11.3684801,50.9712308 10.6022375,50.9584672 10.0923426,50.9584672 C8.04204609,50.9584672 1.85405056,51.1627914 0.578236324,53.4778369 C0.424050706,53.6942783 0.331313206,53.9573039 0.331313206,54.2431639 L0.331313206,58.2413256 C0.331313206,61.4079731 7.80244721,61.6544116 10.0923426,61.6544116 C11.0049619,61.6544116 12.7405863,61.6115973 14.4980756,61.3640817 C14.070309,60.5723121 13.7118531,59.7223258 13.4064439,58.828071 C12.4534876,58.9348108 11.3572782,59.0073529 10.0923426,59.0073529 Z" id="Path" fill="#000000" fill-rule="nonzero"></path>
                        <path d="M63.5001149,51.2815946 C63.5001149,61.050056 57.7994493,66.966463 46.5372243,68.9517571 L46.5372243,65.3929407 C55.6421437,63.678535 59.9707031,59.0877039 59.9707031,51.2815946 C59.9707031,38.7683824 48.5599474,21.1066751 37.6623176,20.3998879 L39.9549058,24.8971736 C40.396944,25.765309 40.0522749,26.8281824 39.1837087,27.2706514 C38.9269302,27.4016256 38.6533491,27.4636661 38.3836455,27.4636661 C37.7412685,27.4636661 37.1217257,27.1116727 36.810231,26.499885 L34.8765834,22.706209 L32.617762,28.0409868 C32.3329791,28.7139532 31.6794003,29.1180777 30.9917854,29.1180777 C30.7625805,29.1180777 30.5290671,29.0732708 30.3046014,28.9780559 C29.4071692,28.5980582 28.9875345,27.5623275 29.3675322,26.6648953 L31.3675825,21.9412051 C28.3279778,23.6245906 25.3884349,26.6096944 22.8644876,30.6721046 C19.0365063,36.8343576 16.6582894,44.731158 16.6582894,51.2815946 C16.6582894,55.0076831 17.3929193,57.9535809 18.9705883,60.2107327 L18.9705883,65.3394092 C15.4508165,62.6114608 13.1288776,58.2432106 13.1288776,51.2815946 C13.1288776,39.8855411 19.8957556,23.9734603 29.9860518,18.6555928 C28.9202164,18.020917 27.8972492,17.2232233 26.9565718,16.2696747 C24.4805551,13.7600527 22.9334216,10.6171012 22.8179574,7.86233329 C22.7981389,7.39401415 22.7382527,5.97009988 23.7886318,5.10368788 C24.8312559,4.24330756 26.0841281,4.54058471 27.1896544,4.80296409 C28.1034583,5.01967482 29.1383274,5.26525156 30.2167109,5.03044571 C30.4360067,4.92058244 30.9999715,4.15369368 31.3368855,3.69571456 C32.2558595,2.44671988 33.3988685,0.892262118 35.2786077,0.813849882 C37.0269418,0.731129294 38.4844614,1.84527221 39.6464271,2.73322606 C40.1160388,3.09254365 40.8260572,3.63496668 41.1026541,3.68623615 C41.9505401,3.82324209 42.8630516,3.68925203 43.7471279,3.56000109 C45.129251,3.35793882 46.5570429,3.15027565 47.699621,4.09725406 C48.4130861,4.68836162 48.8008389,5.58708635 48.8499542,6.76800891 C49.0092559,10.5519911 46.3556807,15.1742194 42.5614661,17.9386811 C53.8027415,22.2686409 63.5001149,38.6192591 63.5001149,51.2815946 Z" id="Path" fill="#000000" fill-rule="nonzero"></path>
                        <path d="M29.4692096,13.7910731 C31.4657054,15.8142808 33.8439223,16.9210995 36.0218003,16.8314855 C41.0216567,16.6212374 45.4696116,10.4986213 45.323989,6.92138674 C45.0198184,6.94077441 44.5967371,7.00281485 44.257238,7.052361 C43.2189223,7.20487712 41.9238281,7.39358347 40.5408432,7.17084097 C39.3991268,6.98687382 38.4353457,6.25014362 37.5030158,5.53754021 C36.830911,5.02398326 35.8718692,4.31741153 35.4268152,4.339815 C35.1721909,4.43804568 34.526798,5.31565941 34.1799747,5.78699444 C33.3626781,6.89812147 32.435949,8.15745626 30.9706744,8.47799859 C29.1189396,8.88384644 27.4834847,8.49997121 26.3951919,8.24190026 C26.6545554,9.99885106 27.8173828,12.1168429 29.4692096,13.7910731 Z" id="Path" fill="#FFFFFF" fill-rule="nonzero"></path>
                        <path d="M45.6548713,50.5896714 L45.6548713,71.5808824 C45.6548713,75.5695657 34.9080882,75.7720588 32.7539062,75.7720588 C30.5997242,75.7720588 19.8529412,75.5695657 19.8529412,71.5808824 L19.8529412,50.5896714 C19.8529412,50.3531422 19.9200978,50.1342235 20.028884,49.9420166 C21.4066988,46.7511345 30.7595646,46.5751378 32.7539063,46.5751378 C34.7484634,46.5751378 44.1031602,46.7511345 45.4794132,49.9429859 C45.5878763,50.1349774 45.6548713,50.3535192 45.6548713,50.5896714 Z" id="Path" fill="#000000" fill-rule="nonzero"></path>
                        <path d="M44.5,20 C51.9052734,22.6650391 59.9104924,26.8945313 63.5001149,35.7457925 C67.0897374,44.5970537 68,52 59.9104924,61.2230199 C51.8209848,70.4460397 39.1758058,67.5923267 29.0895076,61.2230199 C19.0032094,54.853713 16.3570179,48.8265459 19.5652995,35.7457925 C22.7735811,22.6650391 37.0947266,17.3349609 44.5,20 Z" id="Polygon-Copy" fill="#FFA838" style="mix-blend-mode: multiply;"></path>
                        <path d="M22.7735811,50.7663143 C23.8847081,51.4056755 27.3227826,52.3112936 32.7539063,52.3112936 C38.18503,52.3112936 41.6231044,51.4056755 42.7346622,50.7663143 C41.6222426,50.1278148 38.184599,49.2221966 32.7539063,49.2221966 C27.3227826,49.2221966 23.8847081,50.1278148 22.7735811,50.7663143 Z" id="Path" fill="#FFFFFF" fill-rule="nonzero"></path>
                        <path d="M43.0078126,69.2229147 C39.6794936,70.5455286 34.222089,70.6407973 32.7539062,70.6407973 C31.2857234,70.6407973 25.8283189,70.5455286 22.5,69.2229147 L22.5,71.3887293 C23.1828757,72.0186122 26.7510627,73.125 32.7539063,73.125 C38.7567499,73.125 42.324506,72.0186122 43.0078126,71.3887294 L43.0078126,69.2229147 L43.0078126,69.2229147 Z" id="Path" fill="#FFFFFF" fill-rule="nonzero"></path>
                        <path d="M43.0078126,64.3243049 C39.6794936,65.6469188 34.222089,65.7421875 32.7539062,65.7421875 C31.2857234,65.7421875 25.8283189,65.6469188 22.5,64.3243049 L22.5,66.2555291 C23.1742051,66.8842809 26.7409919,67.9937385 32.7539063,67.9937385 C38.7657974,67.9937385 42.3323688,66.8846041 43.0078126,66.2558522 L43.0078126,64.3243049 L43.0078126,64.3243049 Z" id="Path" fill="#FFFFFF" fill-rule="nonzero"></path>
                        <path d="M43.0078126,58.9319566 C39.6794936,60.2545705 34.222089,60.3498392 32.7539062,60.3498392 C31.2857234,60.3498392 25.8283189,60.2545705 22.5,58.9319566 L22.5,61.3569192 C23.1742051,61.9856711 26.7409919,63.0951287 32.7539063,63.0951287 C38.7657974,63.0951287 42.3323688,61.9859943 43.0078126,61.3572424 L43.0078126,58.9319566 L43.0078126,58.9319566 Z" id="Path" fill="#FFFFFF" fill-rule="nonzero"></path>
                        <path d="M43.0078126,53.5402006 C39.6794936,54.8630838 34.222089,54.9583525 32.7539062,54.9583525 C31.2857234,54.9583525 25.8283189,54.8630838 22.5,53.5402006 L22.5,55.9645708 C23.1742051,56.5933226 26.7409919,57.7027803 32.7539063,57.7027803 C38.7657974,57.7027803 42.3323688,56.5936459 43.0078126,55.9648939 L43.0078126,53.5402006 L43.0078126,53.5402006 Z" id="Path" fill="#FFFFFF" fill-rule="nonzero"></path>
                    </g>
                </g>
            </g>
        </g>
    </g>
</svg>