<?xml version="1.0" encoding="UTF-8"?>
<svg width="75px" height="76px" viewBox="0 0 75 76" version="1.1" xmlns="http://www.w3.org/2000/svg" xmlns:xlink="http://www.w3.org/1999/xlink">
    <!-- Generator: Sketch 60.1 (88133) - https://sketch.com -->
    <title>Recommend</title>
    <desc>Created with Sketch.</desc>
    <g id="Final-P0" stroke="none" stroke-width="1" fill="none" fill-rule="evenodd">
        <g id="AC_LandingPg_P0_Desktop" transform="translate(-571.000000, -619.000000)">
            <rect fill="#FFFFFF" x="0" y="0" width="1200" height="2470"></rect>
            <g id="Group-2" transform="translate(0.000000, -14.000000)">
                <rect id="Rectangle" stroke="#E5E5E5" fill="#FFFFFF" x="0.5" y="0.5" width="1199" height="2629"></rect>
                <g id="Icons" transform="translate(71.000000, 633.000000)">
                    <g id="Recommend" transform="translate(500.000000, 0.000000)">
                        <rect id="Rectangle" fill="#FFFFFF" x="0" y="0" width="75" height="76"></rect>
                        <path d="M8.32030568,39 C8.32030568,55 20.7852857,72.8261719 35.259895,75 C44.9189385,76 58.1865166,74.6142578 63.9189385,57.6269531 C67.7405531,46.3020833 65.0410088,32.4264323 55.8203057,16 L15.536126,16 C10.7255791,20.6666667 8.32030568,28.3333333 8.32030568,39 Z" id="Path-3" fill="#FFA838" style="mix-blend-mode: multiply;" transform="translate(36.959469, 45.622194) scale(-1, 1) translate(-36.959469, -45.622194) "></path>
                        <rect id="Rectangle" fill="#FFFFFF" x="22" y="21" width="17" height="14"></rect>
                        <rect id="Rectangle-Copy" fill="#FFFFFF" x="22" y="41" width="17" height="14"></rect>
                        <path d="M51.75,20.5 L44.25,20.5 C43.5596441,20.5 43,21.0596441 43,21.75 C43,22.4403559 43.5596441,23 44.25,23 L51.75,23 C52.4403559,23 53,22.4403559 53,21.75 C53,21.0596441 52.4403559,20.5 51.75,20.5 Z" id="Path" fill="#000000" fill-rule="nonzero"></path>
                        <path d="M59.75,1 L14.25,1 C13.5596441,1 13,1.55964406 13,2.25 L13,68.75 C13,69.4403559 13.5596441,70 14.25,70 L59.75,70 C60.4403559,70 61,69.4403559 61,68.75 L61,2.25 C61,1.55964406 60.4403559,1 59.75,1 Z M15.5,3.5 L58.3828125,3.5 L58.3828125,13.5 L15.5,13.5 L15.5,3.5 Z M15.5,16 L58.8291016,16 L58.8291016,67.5 L15.5,67.5 L15.5,16 Z" id="Shape" fill="#000000" fill-rule="nonzero"></path>
                        <path d="M39.25,20.5 L21.75,20.5 C21.0596441,20.5 20.5,21.0596441 20.5,21.75 L20.5,34.25 C20.5,34.9403559 21.0596441,35.5 21.75,35.5 L39.25,35.5 C39.9403559,35.5 40.5,34.9403559 40.5,34.25 L40.5,21.75 C40.5,21.0596441 39.9403559,20.5 39.25,20.5 Z M38,33 L23,33 L23,23 L38,23 L38,33 Z" id="Shape" fill="#000000" fill-rule="nonzero"></path>
                        <path d="M51.75,25.5 L44.25,25.5 C43.5596441,25.5 43,26.0596441 43,26.75 C43,27.4403559 43.5596441,28 44.25,28 L51.75,28 C52.4403559,28 53,27.4403559 53,26.75 C53,26.0596441 52.4403559,25.5 51.75,25.5 Z" id="Path" fill="#000000" fill-rule="nonzero"></path>
                        <path d="M39.25,40 L21.75,40 C21.0596441,40 20.5,40.5596441 20.5,41.25 L20.5,53.75 C20.5,54.4403559 21.0596441,55 21.75,55 L39.25,55 C39.9403559,55 40.5,54.4403559 40.5,53.75 L40.5,41.25 C40.5,40.5596441 39.9403559,40 39.25,40 Z M38,52.5 L23,52.5 L23,42.5 L38,42.5 L38,52.5 Z" id="Shape" fill="#000000" fill-rule="nonzero"></path>
                        <path d="M51.75,40 L44.25,40 C43.5596441,40 43,40.5596441 43,41.25 C43,41.9403559 43.5596441,42.5 44.25,42.5 L51.75,42.5 C52.4403559,42.5 53,41.9403559 53,41.25 C53,40.5596441 52.4403559,40 51.75,40 Z" id="Path" fill="#000000" fill-rule="nonzero"></path>
                        <path d="M51.75,45 L44.25,45 C43.5596441,45 43,45.5596441 43,46.25 C43,46.9403559 43.5596441,47.5 44.25,47.5 L51.75,47.5 C52.4403559,47.5 53,46.9403559 53,46.25 C53,45.5596441 52.4403559,45 51.75,45 Z" id="Path" fill="#000000" fill-rule="nonzero"></path>
                        <path d="M52.2246094,59.5 L22.25,59.5 C21.5596441,59.5 21,60.0596441 21,60.75 C21,61.4403559 21.5596441,62 22.25,62 C23.4565972,62 24.3615451,62 24.9648438,62 C26.0282118,62 35.1148003,62 52.2246094,62 C52.9149653,62 53.4746094,61.4403559 53.4746094,60.75 C53.4746094,60.0596441 52.9149653,59.5 52.2246094,59.5 Z" id="Path-Copy" fill="#000000" fill-rule="nonzero"></path>
                        <path d="M51.75,9.75 C52.4403559,9.75 53,9.19035594 53,8.5 C53,7.80964406 52.4403559,7.25 51.75,7.25 L49.25,7.25 C48.5596441,7.25 48,7.80964406 48,8.5 C48,9.19035594 48.5596441,9.75 49.25,9.75 L51.75,9.75 Z" id="Path" fill="#000000" fill-rule="nonzero"></path>
                        <path d="M44.25,7.25 L41.75,7.25 C41.0596441,7.25 40.5,7.80964406 40.5,8.5 C40.5,9.19035594 41.0596441,9.75 41.75,9.75 L44.25,9.75 C44.9403559,9.75 45.5,9.19035594 45.5,8.5 C45.5,7.80964406 44.9403559,7.25 44.25,7.25 Z" id="Path" fill="#000000" fill-rule="nonzero"></path>
                    </g>
                </g>
            </g>
        </g>
    </g>
</svg>