<?xml version="1.0" encoding="UTF-8"?>
<svg width="75px" height="76px" viewBox="0 0 75 76" version="1.1" xmlns="http://www.w3.org/2000/svg" xmlns:xlink="http://www.w3.org/1999/xlink">
    <!-- Generator: Sketch 60.1 (88133) - https://sketch.com -->
    <title>Join</title>
    <desc>Created with Sketch.</desc>
    <g id="Final-P0" stroke="none" stroke-width="1" fill="none" fill-rule="evenodd">
        <g id="AC_LandingPg_P0_Desktop" transform="translate(-201.000000, -619.000000)">
            <g id="Group-2" transform="translate(0.000000, -14.000000)">
                <g id="Icons" transform="translate(71.000000, 633.000000)">
                    <g id="SignUp" transform="translate(130.000000, 0.000000)">
                        <path d="M28,0.99997871 C39.8154297,1.01367187 48.4798524,6.55829919 52.4051665,17.0880923 C56.3304806,27.6178854 52.9778621,42.6114024 42.7012564,49.1191725 C32.4246507,55.6269425 21.5753493,55.6269425 11.2987436,49.1191725 C1.02213786,42.6114024 -1.33048063,28.6178854 2.59483347,18.0880923 C6.52014757,7.55829919 16.1845703,0.986328125 28,0.99997871 Z" id="Polygon" fill="#FFA838" style="mix-blend-mode: multiply;"></path>
                        <path d="M57.5060209,74.2624854 C55.4254877,74.2624854 53.273212,73.8320303 51.1926788,72.827635 L29.4546941,62.5684541 C28.1633287,61.9227714 27.1589334,60.8466335 26.6567357,59.4835256 C26.2262806,58.1204176 26.2980231,56.6138246 26.8719633,55.3224592 C26.9437058,55.1072316 27.1589334,54.892004 27.4459035,54.748519 C29.6699217,53.385411 34.1179582,52.7397283 36.700689,53.8876087 L26.6567357,37.7455409 C25.867568,36.525918 25.6523404,35.019325 25.9393105,33.656217 C26.2262806,32.2931091 27.1589334,31.0017437 28.3785563,30.2843184 C30.8895446,28.7777254 34.3331858,29.4951507 35.8397787,32.0778815 L40.2878152,39.3238764 C40.6465278,38.9651638 41.076983,38.5347086 41.5074381,38.3194811 C43.1575162,37.3150857 45.1663068,37.2433432 46.7446424,38.1042535 C47.1750975,37.2433432 47.8207802,36.5976605 48.6816905,36.0237203 C50.3317685,35.019325 52.3405592,34.9475825 53.9188947,35.8084927 C54.3493499,34.9475825 54.9950326,34.3018997 55.8559429,33.7279596 C57.1473083,32.9387918 58.7256438,32.7235642 60.1604943,33.0822768 C61.5236022,33.4409895 62.6714826,34.3018997 63.3889079,35.5215226 L71.352328,50.0135124 C75.2264243,57.1160223 72.7154359,64.7924723 68.482627,69.3122513 C65.469441,72.4689224 61.5236022,74.2624854 57.5060209,74.2624854 Z" id="Path" stroke="#000000" stroke-width="3" fill="#FFFFFF" fill-rule="nonzero"></path>
                        <path d="M14.655814,49.9069767 C14.2139535,49.9069767 13.772093,49.6418605 13.5069767,49.2 C13.1534884,48.5813953 13.4186047,47.7860465 14.0372093,47.4325581 L23.0511628,42.4837209 C23.6697674,42.1302326 24.4651163,42.3953488 24.8186047,43.0139535 C25.172093,43.6325581 24.9069767,44.427907 24.2883721,44.7813953 L15.2744186,49.7302326 C15.0976744,49.8186047 14.9209302,49.9069767 14.655814,49.9069767 Z" id="Path" fill="#000000" fill-rule="nonzero"></path>
                        <path d="M43.7302326,33.9116279 C43.2883721,33.9116279 42.8465116,33.6465116 42.5813953,33.2046512 C42.227907,32.5860465 42.4930233,31.7906977 43.1116279,31.4372093 L52.1255814,26.4883721 C52.744186,26.1348837 53.5395349,26.4 53.8930233,27.0186047 C54.2465116,27.6372093 53.9813953,28.4325581 53.3627907,28.7860465 L44.3488372,33.7348837 C44.172093,33.8232558 43.9069767,33.9116279 43.7302326,33.9116279 Z" id="Path" fill="#000000" fill-rule="nonzero"></path>
                        <path d="M36.9255814,27.6372093 C36.8372093,27.6372093 36.6604651,27.6372093 36.572093,27.5488372 C35.8651163,27.372093 35.4232558,26.5767442 35.6883721,25.8697674 L38.5162791,15.972093 C38.6930233,15.2651163 39.4883721,14.8232558 40.1953488,15.0883721 C40.9023256,15.2651163 41.344186,16.0604651 41.0790698,16.7674419 L38.2511628,26.6651163 C38.0744186,27.2837209 37.544186,27.6372093 36.9255814,27.6372093 Z" id="Path" fill="#000000" fill-rule="nonzero"></path>
                        <path d="M26.8511628,28.6093023 C26.4093023,28.6093023 25.9674419,28.344186 25.7023256,27.9906977 L20.3116279,19.2418605 C19.9581395,18.6232558 20.1348837,17.827907 20.7534884,17.3860465 C21.372093,16.944186 22.1674419,17.2093023 22.6093023,17.827907 L28,26.5767442 C28.3534884,27.1953488 28.1767442,27.9906977 27.5581395,28.4325581 C27.2930233,28.5209302 27.1162791,28.6093023 26.8511628,28.6093023 Z" id="Path" fill="#000000" fill-rule="nonzero"></path>
                        <path d="M21.0186047,35.5906977 C20.9302326,35.5906977 20.8418605,35.5906977 20.6651163,35.5906977 L10.6790698,33.2046512 C9.97209302,33.027907 9.53023256,32.3209302 9.70697674,31.6139535 C9.88372093,30.9069767 10.5906977,30.4651163 11.2976744,30.6418605 L21.2837209,33.027907 C21.9906977,33.2046512 22.4325581,33.9116279 22.255814,34.6186047 C22.1674419,35.1488372 21.6372093,35.5906977 21.0186047,35.5906977 Z" id="Path" fill="#000000" fill-rule="nonzero"></path>
                    </g>
                </g>
            </g>
        </g>
    </g>
</svg>